<svg width="384" height="123" viewBox="0 0 384 123" fill="none" xmlns="http://www.w3.org/2000/svg">
<g clip-path="url(#clip0_159_151)">
<path d="M2.5 120.5H381.5V22.5L371.5 12.5L361.5 2.5H192H2.5V120.5Z" stroke="white" stroke-width="5"/>
<path d="M143.82 53H138.038V16.25H143.82V29.823C145.584 27.667 148.573 26.246 151.954 26.246C157.491 26.246 161.117 29.97 161.117 35.801V53H155.335V36.095C155.335 33.204 153.424 31.293 150.337 31.293C146.417 31.293 143.869 33.89 143.82 37.271V53ZM177.186 53.735C169.248 53.735 163.809 48.051 163.809 40.113C163.809 31.538 169.444 26.246 176.696 26.246C184.046 26.246 188.946 31.391 189.093 39.819V41.191H169.591C169.983 45.748 172.825 48.835 177.235 48.835C180.224 48.835 182.478 47.365 183.36 44.768H188.995C187.672 50.354 183.311 53.735 177.186 53.735ZM169.836 37.124H183.115C182.38 33.4 180.077 31.146 176.696 31.146C173.266 31.146 170.718 33.4 169.836 37.124ZM204.189 53.735C195.712 53.735 190.763 47.659 190.763 39.819C190.763 31.293 196.496 26.246 204.042 26.246C211.147 26.246 215.949 30.607 216.439 37.075H210.755C210.216 33.498 207.668 31.195 203.993 31.195C199.583 31.195 196.643 34.527 196.643 39.819C196.643 45.503 199.877 48.786 204.189 48.786C207.717 48.786 210.167 46.532 210.755 42.808H216.439C215.753 49.521 211.098 53.735 204.189 53.735ZM225.351 53H219.569V16.25H225.351V29.823C227.115 27.667 230.104 26.246 233.485 26.246C239.022 26.246 242.648 29.97 242.648 35.801V53H236.866V36.095C236.866 33.204 234.955 31.293 231.868 31.293C227.948 31.293 225.4 33.89 225.351 37.271V53ZM258.668 53.735C250.24 53.735 245.34 47.806 245.34 39.77C245.34 31.293 251.073 26.246 258.668 26.246C267.047 26.246 271.947 32.126 271.947 39.77C271.947 48.541 266.41 53.735 258.668 53.735ZM258.668 48.786C263.323 48.786 266.067 44.964 266.067 39.77C266.067 34.625 263.176 31.195 258.668 31.195C254.16 31.195 251.22 34.625 251.22 39.77C251.22 45.454 254.405 48.786 258.668 48.786ZM296.261 53.735C287.784 53.735 282.835 47.659 282.835 39.819C282.835 31.293 288.568 26.246 296.114 26.246C303.219 26.246 308.021 30.607 308.511 37.075H302.827C302.288 33.498 299.74 31.195 296.065 31.195C291.655 31.195 288.715 34.527 288.715 39.819C288.715 45.503 291.949 48.786 296.261 48.786C299.789 48.786 302.239 46.532 302.827 42.808H308.511C307.825 49.521 303.17 53.735 296.261 53.735ZM323.5 53.735C315.072 53.735 310.172 47.806 310.172 39.77C310.172 31.293 315.905 26.246 323.5 26.246C331.879 26.246 336.779 32.126 336.779 39.77C336.779 48.541 331.242 53.735 323.5 53.735ZM323.5 48.786C328.155 48.786 330.899 44.964 330.899 39.77C330.899 34.625 328.008 31.195 323.5 31.195C318.992 31.195 316.052 34.625 316.052 39.77C316.052 45.454 319.237 48.786 323.5 48.786ZM345.619 53H339.837V27.03H344.492L344.982 30.852C346.599 28.157 349.882 26.246 353.753 26.246C359.29 26.246 362.916 29.97 362.916 35.801V53H357.134V36.095C357.134 33.204 355.223 31.293 351.989 31.293C348.216 31.293 345.668 33.89 345.619 37.271V53Z" fill="white"/>
<path d="M167.304 100.31H137.468V90.4951L158.219 69.9126V68.118H137.58V61.0515H167.192V70.81L146.441 91.4486V93.2432H167.304V100.31Z" fill="white"/>
<path d="M198.022 85.4477V88.0836H176.767C177.103 92.402 180.076 95.2061 184.114 95.2061C187.535 95.2061 190.002 93.3554 190.844 90.6634L197.798 90.8877C196.508 97.169 190.9 100.983 184.17 100.983C176.15 100.983 169.925 95.0379 169.925 86.5132V86.4011C169.925 77.8764 176.206 71.9877 184.226 71.9877C191.292 71.9877 198.022 76.5865 198.022 85.4477ZM184.17 77.7082C180.188 77.7082 177.44 80.288 176.823 83.8213H191.012C190.675 80.0076 187.703 77.7082 184.17 77.7082Z" fill="white"/>
<path d="M209.332 100.31H202.658V72.6607H209.108V77.0913H209.613C210.622 74.904 212.865 72.156 216.623 72.156C218.137 72.156 219.259 72.4364 220.549 72.9411L220.38 79.615H219.876C218.586 79.0542 217.128 78.6055 215.613 78.6055C212.024 78.6055 209.332 82.0266 209.332 85.6159V100.31Z" fill="white"/>
<path d="M232.472 100.983C226.639 100.983 223.162 97.2251 223.162 92.6824V92.5702C223.162 88.3079 225.406 86.4011 229.051 85.7842L237.912 84.2699C240.155 83.8773 241.389 83.0361 241.333 81.5218C241.277 79.5029 239.819 77.7082 235.893 77.7082C232.023 77.7082 229.892 79.615 229.892 82.8678L223.274 82.6996C223.274 76.0257 228.154 71.9877 235.781 71.9877C244.025 71.9877 248.231 76.3061 248.231 83.4848V94.5892H252.494V100.31H242.343L242.006 96.496H241.558C240.212 98.5711 236.847 100.983 232.472 100.983ZM234.772 95.4305C237.8 95.4305 241.558 93.6358 241.558 89.8782V87.018H241.221C240.716 87.4667 239.819 87.8592 238.697 88.0836L233.482 89.037C231.014 89.4856 229.948 90.383 229.948 92.2898V92.402C229.948 94.1966 232.023 95.4305 234.772 95.4305Z" fill="white"/>
<path d="M270.616 94.477H270.84L271.065 100.085C269.775 100.59 268.653 100.927 266.522 100.927C260.633 100.927 256.876 97.5616 256.932 90.6073L256.988 78.3812H252.445V72.6607H256.988L257.044 64.5847H263.718L263.662 72.6607H270.896V78.3812H263.662L263.606 90.2708C263.606 93.8601 265.232 95.0379 268.092 95.0379C269.214 95.0379 270.055 94.7575 270.616 94.477Z" fill="white"/>
<path d="M288.947 110.965H282.105V110.292L285.526 100.31H282.666L273.637 73.3336V72.6606H280.367L286.816 93.0749H288.33L294.724 72.6606H301.51V73.3336L288.947 110.965Z" fill="white"/>
<path d="M312.078 110.965H305.404V72.6607H311.966V76.9791H312.527C314.265 73.8945 317.518 71.9877 321.556 71.9877C328.118 71.9877 333.838 77.9325 333.838 86.4572V86.5693C333.838 95.094 328.118 100.983 321.556 100.983C317.63 100.983 314.49 99.3002 312.639 96.4399H312.078V110.965ZM319.649 95.094C323.912 95.094 327.052 91.5607 327.052 86.5693V86.4572C327.052 81.4097 323.912 77.8764 319.649 77.8764C315.275 77.8764 312.078 81.4097 312.078 86.4572V86.5693C312.078 91.5607 315.275 95.094 319.649 95.094Z" fill="white"/>
<path d="M365.45 85.4477V88.0836H344.194C344.531 92.402 347.503 95.2061 351.541 95.2061C354.962 95.2061 357.43 93.3554 358.271 90.6634L365.226 90.8877C363.936 97.169 358.327 100.983 351.597 100.983C343.578 100.983 337.352 95.0379 337.352 86.5132V86.4011C337.352 77.8764 343.634 71.9877 351.654 71.9877C358.72 71.9877 365.45 76.5865 365.45 85.4477ZM351.597 77.7082C347.616 77.7082 344.867 80.288 344.251 83.8213H358.44C358.103 80.0076 355.131 77.7082 351.597 77.7082Z" fill="white"/>
<path d="M167.304 100.31H137.468V90.4951L158.219 69.9126V68.118H137.58V61.0515H167.192V70.81L146.441 91.4486V93.2432H167.304V100.31Z" stroke="white"/>
<path d="M198.022 85.4477V88.0836H176.767C177.103 92.402 180.076 95.2061 184.114 95.2061C187.535 95.2061 190.002 93.3554 190.844 90.6634L197.798 90.8877C196.508 97.169 190.9 100.983 184.17 100.983C176.15 100.983 169.925 95.0379 169.925 86.5132V86.4011C169.925 77.8764 176.206 71.9877 184.226 71.9877C191.292 71.9877 198.022 76.5865 198.022 85.4477ZM184.17 77.7082C180.188 77.7082 177.44 80.288 176.823 83.8213H191.012C190.675 80.0076 187.703 77.7082 184.17 77.7082Z" stroke="white"/>
<path d="M209.332 100.31H202.658V72.6607H209.108V77.0913H209.613C210.622 74.904 212.865 72.156 216.623 72.156C218.137 72.156 219.259 72.4364 220.549 72.9411L220.38 79.615H219.876C218.586 79.0542 217.128 78.6055 215.613 78.6055C212.024 78.6055 209.332 82.0266 209.332 85.6159V100.31Z" stroke="white"/>
<path d="M232.472 100.983C226.639 100.983 223.162 97.2251 223.162 92.6824V92.5702C223.162 88.3079 225.406 86.4011 229.051 85.7842L237.912 84.2699C240.155 83.8773 241.389 83.0361 241.333 81.5218C241.277 79.5029 239.819 77.7082 235.893 77.7082C232.023 77.7082 229.892 79.615 229.892 82.8678L223.274 82.6996C223.274 76.0257 228.154 71.9877 235.781 71.9877C244.025 71.9877 248.231 76.3061 248.231 83.4848V94.5892H252.494V100.31H242.343L242.006 96.496H241.558C240.212 98.5711 236.847 100.983 232.472 100.983ZM234.772 95.4305C237.8 95.4305 241.558 93.6358 241.558 89.8782V87.018H241.221C240.716 87.4667 239.819 87.8592 238.697 88.0836L233.482 89.037C231.014 89.4856 229.948 90.383 229.948 92.2898V92.402C229.948 94.1966 232.023 95.4305 234.772 95.4305Z" stroke="white"/>
<path d="M270.616 94.477H270.84L271.065 100.085C269.775 100.59 268.653 100.927 266.522 100.927C260.633 100.927 256.876 97.5616 256.932 90.6073L256.988 78.3812H252.445V72.6607H256.988L257.044 64.5847H263.718L263.662 72.6607H270.896V78.3812H263.662L263.606 90.2708C263.606 93.8601 265.232 95.0379 268.092 95.0379C269.214 95.0379 270.055 94.7575 270.616 94.477Z" stroke="white"/>
<path d="M288.947 110.965H282.105V110.292L285.526 100.31H282.666L273.637 73.3336V72.6606H280.367L286.816 93.0749H288.33L294.724 72.6606H301.51V73.3336L288.947 110.965Z" stroke="white"/>
<path d="M312.078 110.965H305.404V72.6607H311.966V76.9791H312.527C314.265 73.8945 317.518 71.9877 321.556 71.9877C328.118 71.9877 333.838 77.9325 333.838 86.4572V86.5693C333.838 95.094 328.118 100.983 321.556 100.983C317.63 100.983 314.49 99.3002 312.639 96.4399H312.078V110.965ZM319.649 95.094C323.912 95.094 327.052 91.5607 327.052 86.5693V86.4572C327.052 81.4097 323.912 77.8764 319.649 77.8764C315.275 77.8764 312.078 81.4097 312.078 86.4572V86.5693C312.078 91.5607 315.275 95.094 319.649 95.094Z" stroke="white"/>
<path d="M365.45 85.4477V88.0836H344.194C344.531 92.402 347.503 95.2061 351.541 95.2061C354.962 95.2061 357.43 93.3554 358.271 90.6634L365.226 90.8877C363.936 97.169 358.327 100.983 351.597 100.983C343.578 100.983 337.352 95.0379 337.352 86.5132V86.4011C337.352 77.8764 343.634 71.9877 351.654 71.9877C358.72 71.9877 365.45 76.5865 365.45 85.4477ZM351.597 77.7082C347.616 77.7082 344.867 80.288 344.251 83.8213H358.44C358.103 80.0076 355.131 77.7082 351.597 77.7082Z" stroke="white"/>
<path d="M120.5 2.5H2.5V120.5H120.5V2.5Z" stroke="white" stroke-width="5"/>
<path d="M120.5 2.5V120.5H2.5V2.5H120.5ZM46.8369 81.6855L37.3154 73.3506L19 88.4893V106L104.301 84.5703V67.2471L46.8369 81.6855ZM30.6592 59.1318L49.6143 75.7539L92.6406 64.7871L73.7666 48.2461L30.6592 59.1318ZM19 39.4297V56.7773L76.5684 42.3145L86.0098 50.625L104.301 35.5107V18L19 39.4297Z" fill="white"/>
<path d="M359.901 23.6521L379.5 23.652L359.901 -0.847902L359.901 23.6521Z" fill="white"/>
</g>
<defs>
<clipPath id="clip0_159_151">
<rect width="384" height="123" fill="white"/>
</clipPath>
</defs>
</svg>
