<svg width="1059" height="233" viewBox="0 0 1059 233" fill="none" xmlns="http://www.w3.org/2000/svg">
<path d="M147.456 184V151.744H52.2237V143.552L146.944 49.344V4.79999H11.7757V37.056H105.984V45.248L11.2637 139.2V184H147.456Z" fill="black"/>
<path d="M287.674 116.16C287.674 75.712 256.954 54.72 224.698 54.72C188.09 54.72 159.418 81.6 159.418 120.512V121.024C159.418 159.936 187.834 187.072 224.442 187.072C255.162 187.072 280.762 169.664 286.65 140.992L254.906 139.968C251.066 152.256 239.802 160.704 224.186 160.704C205.754 160.704 192.186 147.904 190.65 128.192H287.674V116.16ZM224.442 80.832C240.57 80.832 254.138 91.328 255.674 108.736H190.906C193.722 92.608 206.266 80.832 224.442 80.832Z" fill="black"/>
<path d="M339.3 184V116.928C339.3 100.544 351.588 84.928 367.972 84.928C374.884 84.928 381.54 86.976 387.428 89.536H389.732L390.5 59.072C384.612 56.768 379.492 55.488 372.58 55.488C355.428 55.488 345.188 68.032 340.58 78.016H338.276V57.792H308.836V184H339.3Z" fill="black"/>
<path d="M444.926 187.072C464.894 187.072 480.254 176.064 486.398 166.592H488.446L489.982 184H536.318V157.888H516.862V107.2C516.862 74.432 497.662 54.72 460.03 54.72C425.214 54.72 402.942 73.152 402.942 103.616L433.15 104.384C433.15 89.536 442.878 80.832 460.542 80.832C478.462 80.832 485.118 89.024 485.374 98.24C485.63 105.152 479.998 108.992 469.758 110.784L429.31 117.696C412.67 120.512 402.43 129.216 402.43 148.672V149.184C402.43 169.92 418.302 187.072 444.926 187.072ZM455.422 161.728C442.878 161.728 433.406 156.096 433.406 147.904V147.392C433.406 138.688 438.27 134.592 449.534 132.544L473.342 128.192C478.462 127.168 482.558 125.376 484.862 123.328H486.398V136.384C486.398 153.536 469.246 161.728 455.422 161.728Z" fill="black"/>
<path d="M619.04 157.376C616.48 158.656 612.64 159.936 607.52 159.936C594.464 159.936 587.04 154.56 587.04 138.176L587.296 83.904H620.32V57.792H587.296L587.552 20.928H557.088L556.832 57.792H536.096V83.904H556.832L556.576 139.712C556.32 171.456 573.472 186.816 600.352 186.816C610.08 186.816 615.2 185.28 621.088 182.976L620.064 157.376H619.04Z" fill="black"/>
<path d="M702.716 232.64L760.06 60.864V57.792H729.084L699.9 150.976H692.988L663.548 57.792H632.828V60.864L674.044 184H687.1L671.484 229.568V232.64H702.716Z" fill="black"/>
<path d="M808.3 232.64V166.336H810.86C819.308 179.392 833.644 187.072 851.564 187.072C881.516 187.072 907.628 160.192 907.628 121.28V120.768C907.628 81.856 881.516 54.72 851.564 54.72C833.132 54.72 818.284 63.424 810.348 77.504H807.788V57.792H777.836V232.64H808.3ZM842.86 160.192C822.892 160.192 808.3 144.064 808.3 121.28V120.768C808.3 97.728 822.892 81.6 842.86 81.6C862.316 81.6 876.652 97.728 876.652 120.768V121.28C876.652 144.064 862.316 160.192 842.86 160.192Z" fill="black"/>
<path d="M1051.92 116.16C1051.92 75.712 1021.2 54.72 988.948 54.72C952.34 54.72 923.668 81.6 923.668 120.512V121.024C923.668 159.936 952.084 187.072 988.692 187.072C1019.41 187.072 1045.01 169.664 1050.9 140.992L1019.16 139.968C1015.32 152.256 1004.05 160.704 988.436 160.704C970.004 160.704 956.436 147.904 954.9 128.192H1051.92V116.16ZM988.692 80.832C1004.82 80.832 1018.39 91.328 1019.92 108.736H955.156C957.972 92.608 970.516 80.832 988.692 80.832Z" fill="black"/>
</svg>
